<svg data-v-423bf9ae="" xmlns="http://www.w3.org/2000/svg" viewBox="0 0 312.93766385085934 60" class="font"><!----><!----><!----><g data-v-423bf9ae="" id="e5647fac-0c92-428e-aed2-bff580a77b35" fill="white" transform="matrix(5.934717742604922,0,0,5.934717742604922,-7.715131976579727,-26.172104339321642)"><path d="M7.11 14.35L8.57 14.35L4.68 8.76L8.32 4.58L6.87 4.58L3.92 8.08L2.52 9.77L2.48 9.77L2.48 4.58L1.30 4.58L1.30 14.35L2.48 14.35L2.48 11.09L3.86 9.55ZM10.11 4.58L10.11 10.35C10.11 13.19 10.98 14.52 13.58 14.52C16.18 14.52 17.14 13.19 17.14 10.35L17.14 4.58L15.96 4.58L15.96 10.63C15.96 12.49 15.36 13.47 13.62 13.47C11.89 13.47 11.28 12.49 11.28 10.63L11.28 4.58ZM22.41 14.52C24.51 14.52 25.77 13.37 25.77 11.58C25.77 10.12 24.95 9.28 23.04 8.85L22.25 8.67C21.01 8.39 20.41 7.97 20.41 7.04C20.41 5.99 21.18 5.45 22.43 5.45C23.56 5.45 24.30 5.91 24.84 6.65L25.72 6.01C24.99 4.97 23.95 4.41 22.48 4.41C20.57 4.41 19.25 5.35 19.25 7.08C19.25 8.58 20.23 9.37 22.01 9.77L22.81 9.95C24.09 10.25 24.61 10.71 24.61 11.63C24.61 12.75 23.86 13.48 22.46 13.48C21.32 13.48 20.51 12.99 19.82 12.08L18.96 12.81C19.74 13.87 20.85 14.52 22.41 14.52ZM34.02 5.61L34.02 4.58L26.63 4.58L26.63 5.61L29.74 5.61L29.74 14.35L30.91 14.35L30.91 5.61ZM39.00 14.52C41.52 14.52 43.15 12.74 43.15 9.46C43.15 6.19 41.52 4.41 39.00 4.41C36.48 4.41 34.86 6.19 34.86 9.46C34.86 12.74 36.48 14.52 39.00 14.52ZM39.00 13.47C37.31 13.47 36.12 12.21 36.12 10.28L36.12 8.65C36.12 6.72 37.31 5.46 39.00 5.46C40.70 5.46 41.89 6.72 41.89 8.65L41.89 10.28C41.89 12.21 40.70 13.47 39.00 13.47ZM45.26 14.35L46.41 14.35L46.41 6.12L46.48 6.12L47.31 7.76L49.64 12.01L51.98 7.76L52.81 6.12L52.88 6.12L52.88 14.35L54.03 14.35L54.03 4.58L52.51 4.58L49.70 9.84L49.63 9.84L46.83 4.58L45.26 4.58Z"></path></g><!----><!----></svg>